<?xml version="1.0" encoding="UTF-8"?>
<!DOCTYPE svg PUBLIC "-//W3C//DTD SVG 1.1//EN" "http://www.w3.org/Graphics/SVG/1.1/DTD/svg11.dtd">
<!-- Creator: CorelDRAW 2021 (64-Bit) -->
<svg xmlns="http://www.w3.org/2000/svg" xml:space="preserve" width="927.086mm" height="927.086mm" version="1.1" style="shape-rendering:geometricPrecision; text-rendering:geometricPrecision; image-rendering:optimizeQuality; fill-rule:evenodd; clip-rule:evenodd"
viewBox="0 0 171428.1 171428.1"
 xmlns:xlink="http://www.w3.org/1999/xlink"
 xmlns:xodm="http://www.corel.com/coreldraw/odm/2003">
 <defs>
  <style type="text/css">
   <![CDATA[
    .fil1 {fill:#FEFEFE}
    .fil0 {fill:url(#id0);fill-rule:nonzero}
   ]]>
  </style>
  <linearGradient id="id0" gradientUnits="userSpaceOnUse" x1="41458.58" y1="46962.08" x2="42688.98" y2="45731.7">
   <stop offset="0" style="stop-opacity:1; stop-color:#48AAEB"/>
   <stop offset="0.0509804" style="stop-opacity:1; stop-color:#48AAEB"/>
   <stop offset="0.94902" style="stop-opacity:1; stop-color:#1268A1"/>
   <stop offset="1" style="stop-opacity:1; stop-color:#1268A1"/>
  </linearGradient>
 </defs>
<symbol id="svg_6" viewBox="41461.89 45733.33 1240.23 1241.9">
 <path class="fil0" d="M41579.98 46570.02l83.67 0 0 85.3c0,65.62 52.5,118.12 118.12,118.12l83.67 0 0 83.67c0,65.62 52.5,118.12 118.12,118.12l600.44 0c65.62,0 118.12,-52.5 118.12,-118.12l0 -600.44c0,-65.62 -52.5,-118.12 -118.12,-118.12l-85.3 0 0 -85.3c0,-65.62 -52.5,-118.12 -118.12,-118.12l-85.3 0 0 -83.67c0,-65.62 -52.5,-118.12 -118.12,-118.12l-597.15 0c-65.62,0 -118.12,52.5 -118.12,118.12l0 602.07c0,63.98 52.5,116.48 118.12,116.48l-0.04 0.02zm700.5 -429.83l-296.93 0c-65.62,0 -118.12,52.5 -118.12,118.12l0 296.93 -185.37 0 0 -500.37c0,-55.77 45.93,-101.72 101.72,-101.72l498.72 0 0 187.02 -0.02 0.02zm-397 429.83l296.93 0c65.62,0 118.12,-52.5 118.12,-118.12l0 -295.3 185.37 0 0 498.72c0,55.77 -45.93,101.72 -101.72,101.72l-498.72 0 0 -187.02 0.02 0z"/>
</symbol>
 <g id="Слой_x0020_1">
  <metadata id="CorelCorpID_0Corel-Layer"/>
  <circle class="fil1" cx="85714.05" cy="85714.05" r="85714.05"/>
  <g id="_1595216205392">
   <g>
    <use transform="scale(84.95 84.95)" x="388.88" y="388.04" width="1240.23" height="1241.9" xlink:href="#svg_6"/>
    <g id="svg_8">
    </g>
   </g>
  </g>
 </g>
</svg>
