<?xml version="1.0" encoding="UTF-8"?>
<!DOCTYPE svg PUBLIC "-//W3C//DTD SVG 1.1//EN" "http://www.w3.org/Graphics/SVG/1.1/DTD/svg11.dtd">
<!-- Creator: CorelDRAW 2021 (64-Bit) -->
<svg xmlns="http://www.w3.org/2000/svg" xml:space="preserve" width="501.369mm" height="501.369mm" version="1.1" style="shape-rendering:geometricPrecision; text-rendering:geometricPrecision; image-rendering:optimizeQuality; fill-rule:evenodd; clip-rule:evenodd"
viewBox="0 0 50136.92 50136.92"
 xmlns:xlink="http://www.w3.org/1999/xlink"
 xmlns:xodm="http://www.corel.com/coreldraw/odm/2003">
 <defs>
  <style type="text/css">
   <![CDATA[
    .fil1 {fill:#FEFEFE}
    .fil0 {fill:url(#id0);fill-rule:nonzero}
   ]]>
  </style>
  <linearGradient id="id0" gradientUnits="userSpaceOnUse" x1="22420.86" y1="25397.16" x2="23086.26" y2="24731.77">
   <stop offset="0" style="stop-opacity:1; stop-color:#48AAEB"/>
   <stop offset="0.0509804" style="stop-opacity:1; stop-color:#48AAEB"/>
   <stop offset="0.94902" style="stop-opacity:1; stop-color:#1268A1"/>
   <stop offset="1" style="stop-opacity:1; stop-color:#1268A1"/>
  </linearGradient>
 </defs>
<symbol id="svg_6" viewBox="22422.65 24732.65 670.72 671.62">
 <path class="fil0" d="M22486.51 25185.13l45.25 0 0 46.13c0,35.49 28.39,63.88 63.88,63.88l45.25 0 0 45.25c0,35.49 28.39,63.88 63.88,63.88l324.72 0c35.49,0 63.88,-28.39 63.88,-63.88l0 -324.72c0,-35.49 -28.39,-63.88 -63.88,-63.88l-46.13 0 0 -46.13c0,-35.49 -28.39,-63.88 -63.88,-63.88l-46.13 0 0 -45.25c0,-35.49 -28.39,-63.88 -63.88,-63.88l-322.94 0c-35.49,0 -63.88,28.39 -63.88,63.88l0 325.6c0,34.6 28.39,62.99 63.88,62.99l-0.02 0.01zm378.83 -232.45l-160.58 0c-35.49,0 -63.88,28.39 -63.88,63.88l0 160.58 -100.25 0 0 -270.6c0,-30.16 24.84,-55.01 55.01,-55.01l269.71 0 0 101.14 -0.01 0.01zm-214.7 232.45l160.58 0c35.49,0 63.88,-28.39 63.88,-63.88l0 -159.7 100.25 0 0 269.71c0,30.16 -24.84,55.01 -55.01,55.01l-269.71 0 0 -101.14 0.01 0z"/>
</symbol>
 <g id="Слой_x0020_1">
  <metadata id="CorelCorpID_0Corel-Layer"/>
  <circle class="fil1" cx="25068.46" cy="25068.46" r="25068.46"/>
  <g id="_1595212813904">
   <g>
    <use transform="scale(45.9411 45.9411)" x="210.31" y="209.86" width="670.72" height="671.62" xlink:href="#svg_6"/>
    <g id="svg_8">
    </g>
   </g>
  </g>
 </g>
</svg>
